<?xml version="1.0" encoding="utf-8"?>
<!-- Generator: Adobe Illustrator 18.1.1, SVG Export Plug-In . SVG Version: 6.00 Build 0)  -->
<!DOCTYPE svg PUBLIC "-//W3C//DTD SVG 1.1//EN" "http://www.w3.org/Graphics/SVG/1.1/DTD/svg11.dtd">
<svg version="1.1" id="Ebene_1" xmlns="http://www.w3.org/2000/svg" xmlns:xlink="http://www.w3.org/1999/xlink" x="0px" y="0px"
	 viewBox="0 0 161.4 82.8" enable-background="new 0 0 161.4 82.8" xml:space="preserve">
<g>
	<path fill="#FFD900" d="M75.2,1.8l0,0.1c0.2,0.4,1.4,1.2,2.1,1c0.3-0.1,0.9-2.2,0.7-2.5C77.6-0.9,74.9,1.1,75.2,1.8"/>
	<path fill="#FFD900" d="M8.4,53.2c0.6,0,1.3-1.1,1.7-1.6c-0.6-0.1,0.6-1.6,0.6-1.6h-0.1c-0.6,0-2.4,2.1-2.4,2.8
		C8.2,53,8.2,53.2,8.4,53.2 M2,11.9L2,11.9c0.1,0,0.2-0.2,0.3-0.6c0-0.4,0-0.9-0.1-1.3c0-0.6,0.9-1-0.3-1.1C1.6,9.1,1.6,9.4,1.6,9.8
		C1.6,10.6,1.9,11.8,2,11.9 M1.4,51.1v0.1c0,0.6,0.1,0.9,0.3,0.9h0.1c0.1,0,0.1-0.1,0.1-0.4c0.1-0.5,0.1-1.1,0.4-1.6
		c0.1-0.2,0.2-0.4,0.3-0.6c-0.1-0.1-0.4-0.1-0.6-0.1H1.9C1.3,49.6,1.4,50.8,1.4,51.1 M10.2,19.1c0,2-0.5,5.8-0.6,8.3
		c-0.1,1.4-0.1,2.8-0.1,4.1c-0.1,1.3,0,2.5,0.1,3.4c0.5,0.2,2.3-0.8,2.9-0.9c0.7-0.5,1.5-1.6,2.3-3.1c0.9-1.6,1.8-3.4,3.1-5.5
		c0.6-0.2,1.1-0.4,1.6-0.4c0.5,0,0.8,0.2,0.8,0.6c0,1.3-0.6,3-1.9,5.3c-1.3,2.3-2.8,4-4.5,5.2c2.1,2.6,4,6.5,5.5,9.6
		c0.7,1.5,1.4,2.3,1.9,2.4c0.4,0.1,0.9-0.9,1.7-2.6c1.8-3.7,3.8-8.5,5-12.7c0.4-0.2,0.6-0.3,1-0.3s0.6,0.1,1,0.3
		c-0.5,2.1-1.6,4.8-2.4,7c-1.1,2.8-2.7,7.2-3.9,9.3c-1.4,2.5-4.4,1.8-6.6,0.1c-2.1-1.7-3.2-5.8-4-8.7c-0.6-2.1-1-2.6-2.8-2.6
		c-0.4,0-0.6,0-0.9,0.1c0.5,1.9,1.3,8.4,0.6,10.7C10,49.1,9.3,50,8,51.3c-1.3,1.3-2.6,2.2-4,2.4H3.6c-0.5,0-0.9-0.1-1.4-0.4
		c-0.6-0.2-1.1-0.8-1.6-1.6c-0.1-0.5,0-1.3,0.4-2.4c0.4-1.1,0.3-1.6-0.3-1.7c-0.5,0-0.7-1.1-0.6-3.5c0.1-2.3,0.2-6,0.3-11.2
		c0-2.2-0.1-6-0.2-8.4v-2.8c0.1-2.3,0.4-3.2,0-6.1C0,15,0,14.5,0,13.9c0-1.1,0.1-1.9,0.5-2.5c0.6,1.2,0.9,1.2,0.7-0.1
		c-0.4-2.2,0.1-5.2,1.7-6C3,5.2,3.3,5.2,3.6,5.2c2.6,0,6.4,1.1,6.4,3.7C9.9,11.6,10.5,16.2,10.2,19.1"/>
	<path fill="#FFD900" d="M28.1,23.4L28.1,23.4c0.1-0.1,0.2-0.2,0.3-0.6c0-0.4,0-0.9-0.1-1.3c0-0.6,0.9-1-0.3-1.1
		c-0.3,0.1-0.4,0.4-0.4,0.9C27.6,22.1,28,23.3,28.1,23.4 M30.2,50.4h0.1c0.3-0.5-1.1-1.8-1.4-2.3c-0.3-0.4-1.2-2.3-1.5-2.3h-0.1
		c-0.1,0-0.1,0.1-0.1,0.1C27.3,46.6,29.5,50.4,30.2,50.4 M27.3,28.4L27.3,28.4c0.5-0.3,0.1-2.8-0.3-2.8c-0.4,0,0.4,1.5-0.2,1.2
		C26.8,27.3,26.9,28.3,27.3,28.4 M33.6,53.8c-0.6-0.1-1.7-0.5-3.3-1.3c-1.6-0.9-2.6-2.1-3.1-3.6c-0.7-2.3-1.1-4.4-1.5-6.2
		c-0.3-1.9-0.5-3.6-0.6-5.1v-1.8c0-4.3,1.1-7.5,1.3-11c1,0.6,1.2,0.5,0.7-0.5c-0.5-1-0.6-2.6-0.2-4.8c0.1-3.5,0.6-10.5,3.1-11.5
		c0.9-0.4,1.8-0.9,2.6-1.4C33.2,6.1,33.7,6,34.3,6c2.3,0,2.9,0.9,3.3,3.7c0.3,1.9,0.4,4,0.4,6.2c0,4.6-0.7,7.4-1.1,11.6
		c-0.1,2.8-1.1,5.2-0.9,8.8c0.1,1.4,0.2,3.1,0.5,4.7c0.4,2.6,1.1,8.2,3,8.8c2.3,0.9,8.4-15.2,9.1-17.5c0.7-0.4,1.3-0.3,2.1-0.1
		c-1.4,4.8-3.9,10.3-5.9,14.6c-0.9,2.1-1.5,3.3-1.8,3.7c-1,1.5-2.6,2.4-4.8,2.8c-1.8,0.4-3.3,0.6-4.3,0.6H33.6z"/>
	<path fill="#FFD900" d="M54.6,53.1v-0.1c0.1-0.9,0.1-1,1-1c0.1,0.5,0.6,0.7,0.9,1C56.3,53.3,56,54,55.5,54
		C55.3,53.8,54.6,53.3,54.6,53.1 M56,27.1c-1.3,1.3-1.8,3.5-1.8,6.4c0,1.2,0.1,2.1,0.3,2.7c0.9-0.1,1.8-0.5,3.1-1.3
		c1.3-0.9,1.9-1.8,1.9-3v-0.1c0-0.9,0-1.8-0.1-2.8c0-1-0.2-1.8-0.6-2.3c-0.5-0.1-0.9-0.2-1.2-0.2C56.9,26.4,56.4,26.7,56,27.1
		 M55.1,44L55.1,44c0.6-0.4-0.5-3.3-0.6-3.5c-0.2,0.5-0.4,0.4-0.6-0.5c-0.2-0.7-0.4-1.1-0.5-1.1h-0.1c-0.1,0.1-0.1,0.1-0.1,0.3
		C53.3,40.3,54.8,43.8,55.1,44 M52.9,20.7c3.8,0,7.4,2.4,8.4,5c2.2,6,0.9,8-1.7,11.2c-1.1,1.3-2.8,1.8-4.4,2.2
		c0.3,2.5,3,6.3,5.2,6.9c0.4,0.1,0.8,0.1,1.1,0c0.4-0.1,0.8-0.3,1.1-0.6c2.8-2.7,5-8.2,6.5-12.1c0.7-1.8,1.1-2.8,1.1-3.1
		c0.4-0.1,0.8-0.1,1.1-0.1c0.4,0,0.7,0.1,0.9,0.1c-1,4.2-4,9.6-5.9,13.3c-1.8,3.3-3.7,5.7-8.4,5.7c-2.8,0-5.9-1.4-7.4-2.3
		c-2.6-1.5-4.5-4.9-5.1-8.1c-0.4-1.3-0.5-2.2-0.5-2.6c-0.1-0.9-0.1-1.8-0.1-2.7c0-4,1.1-7.7,2.3-9.9c0.2-0.4,0.8-1.6,1.1-1.6
		C49.7,21.1,51,20.7,52.9,20.7"/>
	<path fill="#FFD900" d="M85,41.7c-0.1,0-0.2-0.1-0.3-0.3c0.3-0.5,0.3-0.7,0.3-1.1c0.2-0.1,0.1-0.1,0.5,0.2c0,0.2,0.1,0.4,0.1,0.6
		C85.4,41.4,85.2,41.7,85,41.7 M85.6,45.6l0-0.1c-0.1-0.1-0.1-0.1-0.2-0.1c-0.6-0.1-4.2,2-4.3,2.7c-0.1,0.6,0.4,1,0.7,1
		C83,49.2,85.6,46.1,85.6,45.6 M76.1,44.4c0.2-1.3-0.2-1.4-0.4,0.3c0,0.9-0.1,1.5-0.3,1.7c0.4-0.1-0.3,1,0,1
		C75.5,47.4,76,45.2,76.1,44.4 M75.3,42.4c-0.1,1.1-0.1,1.7-0.1,1.8c0.1-0.1,0.1-0.1,0.2-0.1c0.1-0.1,0.1-0.1,0.1-0.2
		c0.3-1,0.6-1.6,0.6-2.1c0.1-0.6-0.1-1.3-0.4-1.3c-0.1,0.1-0.1,0.6-0.2,1.4L75.3,42.4z M79.7,10.7c0.4,1.1-0.8,6.8-0.9,8.2
		c0.1,3.7,0,6.2-0.1,7.8l-0.2,2.4l-0.2,1.8c-0.1,1.1-0.2,2.1-0.4,2.9c0.7-0.6,2.1-1.4,3.1-1.7c0.7-0.2,1.7-0.1,3,0.4
		c3.2,1.1,4.9,5.1,4.9,9c0.6-0.1,1.7-0.7,3.5-1.9s2.8-2.2,3.3-3c0.4-0.1,0.7-0.1,1.2-0.1c0.4,0,0.6,0.1,0.9,0.4
		c-0.6,1.5-1.8,2.6-3,3.5c-1.2,1-2.4,1.8-3.6,2.4s-1.9,1.1-2,1.4c-1.3,4.6-3.1,7-8.2,7.7c-0.2,0-0.8-0.2-1.7-0.8
		c-1.6-0.9-2.6-2.5-1.1-4.1c1.7-1.4,3.1-2.4,4.3-3c1.8-0.8,4.1-1.4,3.4-3.7c-0.7-2.1-2.7-4.4-5.8-3.6c-2.2,0.6-2.6,1-2.9,4.2
		c-0.1,1.5-0.3,3-0.5,4.7c-0.3,1.6-0.7,3.3-1.2,4.5c-0.8,1.5-1.4,2.5-2,2.6c-1.2,0.5-1.8,1.3-4.2,1c-2.8-0.3-4.4-2.2-4.6-4.7
		c1,0.9,1.4-0.4,1.4-1.3c0-0.6,0.4-1.9,1.2-4C69,39.3,69,35,69.1,30.3c0.1-3.3,0.3-8.5,0.1-11.1c-0.1-2.1,1.2-8.3,2.5-8.8
		c1.9-0.9,3.6-1.2,4.8-1C77.9,9.6,79.7,10.7,79.7,10.7"/>
	<path fill="#FFD900" d="M107.7,35c0,0.1,0,0.1,0,0.3c0.4,0.1,0.7,0.3,1,0.5c0.1-0.1,0.1-0.2,0.1-0.5c-0.1-0.3-0.4-0.5-0.7-0.5
		l-0.1,0C107.9,34.7,107.8,34.8,107.7,35 M97.7,60.3c0-0.1-0.1-0.1-0.1-0.2c-0.1,0-0.2-0.2-0.3-0.4c-0.3-0.2-0.6,0.1-0.8,0.7l0,0.1
		c-0.2,0.5-0.1,0.8,0.3,1c0.2,0.1,0.4-0.1,0.4-0.3C97.4,60.9,97.7,60.6,97.7,60.3 M98.5,49.1L98.5,49.1l0.1-0.1
		c0.1-1.8,0.2-2.9,0.5-3.3L99,45.5c-0.3-0.1-0.5,0.7-0.8,2.1c-0.1,0.1-0.1,0.3-0.2,0.5C97.9,48.5,98.2,49,98.5,49.1 M98.1,45.9
		L98.1,45.9c0.2,0,0-1.5,0.6-1.1c0-0.4,0.2-1.6-0.2-1.7c-0.2,0.1-0.4,0.3-0.4,0.6C97.9,44.5,97.9,45.8,98.1,45.9 M100.7,30.8
		c-0.1,0.3-0.1,0.6-0.1,0.8c0.6,0.2,1.4-0.8,2.3-2c0.9-1.4,1.3-2.2,1.2-2.3l-0.1,0C102.4,26.9,101.1,29.2,100.7,30.8 M110.1,36.1
		c-0.1,0.3-0.3,0.5-0.6,0.8c-0.1,0.2-0.7,1-1.6,2.6c-1.7,3-2.1,10.9-2,14.7c0.1,4.6,1.1,4.7,3.9,1.3c1.5-1.8,3-3.7,4.5-5.8
		c1.4-2.1,3.1-4.9,4.4-6.7c0.8,0.1,1.4,0.1,1.9,0.6c-2.7,4.3-6,10.1-9,13.8c-1.8,2.5-5,4-8.2,4.1c-0.5,0-0.9,0-1.4-0.1
		c-7-1.8-5.6-11.8-4.5-18.4c0.2-1.2,1.1-3.2,2.6-5.9c0.3-1.2,1.7-2.4-0.5-3.1c-0.5,0.5-1,1.2-1.6,2.2c-0.6,1-1.1,1.9-1.9,2.9
		c-0.8-0.1-1.2-0.3-1.8-0.6c1.1-1.8,4-6,4.4-8.3c0.2-1.1,0.9-2.3,1.8-3.6c0.9-1.2,2.1-1.7,3.7-1.5l0.5,0.1c2,0.5,2.1,2.4,1.1,4.2
		l-0.9,1.4c-0.4,0.4-0.7,0.8-1,1.2l-0.4,0.6l3.6,0.9C108.9,34.2,110.2,34.9,110.1,36.1"/>
	<path fill="#FFD900" d="M133,26.4l0.1-0.1c0.4-0.8,0.6-0.8,1.4-0.5c-0.2,0.5,0.2,0.9,0.3,1.2c-0.2,0.5-0.7,0.8-1.1,0.7
		C133.5,27.2,133,26.8,133,26.4 M116.4,62.2c0.6,0.2,2.8-2.1,0.6-0.7c-0.4,0.2-0.6,0.4-0.7,0.6C116.3,62.1,116.3,62.1,116.4,62.2
		 M123.3,26.8c0.2-0.1,1.3-0.6,1.2-1l-0.1,0c-0.4-0.2-2.1,0.7-2.3,1.1l0,0.1C122.3,27,123.3,26.4,123.3,26.8 M121.4,26.7
		c0.4-0.8,1.5-1.3,3.1-1.6c1.5-0.3,2.4-0.4,2.9-0.2l0.1,0c1.2,0.8,1.9,1.8,1.9,3.1c0.3,2.6-3.1,2.8-5.1,1.6l-0.3-0.1
		c-1.9-0.9-2.5-0.9-2.7-1.9c-0.1-0.3-0.1-0.5,0-0.8L121.4,26.7z M110.2,51.7l0,0.2c0.1,0,0.3-0.6,0.9-1.8c0.5-1.1,0.8-1.7,0.8-2
		c-0.2-0.2-0.8,0.6-1,1.2C110.7,49.9,110.6,50.9,110.2,51.7 M118.1,54.5c-0.9,2-1,3.2-0.3,3.7c0.3,0.2,1.2-0.3,2.7-1.7
		c3.3-3.3,7.5-7.7,10.7-11.3c0.3-0.1,0.7-0.1,1.1,0.1c0.4,0.1,0.6,0.3,0.8,0.7c-3.6,4.4-8.5,9.4-12.4,13.5c-1.9,2-3.1,3.1-3.6,3.4
		c-0.9,0.5-1.9,0.6-3.2,0.2l-0.3-0.1c-2.1-0.9-4.4-3.5-4.3-5c0-1.4,0.1-2.4,0.3-3c0.2-0.6,0.3-1.2,0.4-1.7c-0.1,0.2-0.7,0.9-0.7,0.3
		c0.2-1.9,0.6-3.5,1.2-4.9c0.7-1.8,1.7-3.6,2.5-5.3c1.2-2.6,2.2-4.6,3.1-5.9c1-1.4,1.5-2.1,1.9-2.3c0.4-0.2,1.4-0.3,2.9-0.8
		c1.7-0.4,3.2-0.6,4.6,0c1.8,0.7,1.4,1.5,0.4,3.9C123.3,44,120.5,49,118.1,54.5"/>
	<path fill="#FFD900" d="M140.4,72.7l-0.1,0.1c-0.1,0.3-0.1,0.4,0.1,0.5c0.1,0.1,0.2,0,0.3,0c0.1-0.2,0.3-0.3,0.4-0.5
		c0-0.1,0-0.1,0-0.2c-0.1,0-0.1-0.1-0.1-0.3C140.6,72.3,140.5,72.5,140.4,72.7 M138.5,74.5c-0.4,0.2-0.7,0.5-0.9,0.9
		c-0.2,0.5-0.2,1.2,0,1.3c0.4,0.2,1.9-1.8,2-2.1c0-0.1,0.1-0.2,0.1-0.3c0.1-0.3,0.2-0.6,0.3-0.9C139.4,73.1,138.7,73.9,138.5,74.5
		 M148,43.5c0.1-0.5,0.4-1,0.7-1.7c0.4-0.8,0.5-1.2,0.4-1.2c-0.3,0-0.7,0.6-1.3,1.7l-0.3,0.7c-0.3,0.7-0.4,1.1-0.4,1.2
		C147.3,44.3,147.7,43.1,148,43.5 M126.8,75.3c-0.1,0.5-0.3,0.9-0.1,1.2c0.1,0.1,0,0.2-0.4,0l-0.1,0c-0.3-0.4-0.3-0.8-0.2-1.1
		C126.1,75.2,126.4,75.2,126.8,75.3 M126.8,71.8l-0.3,0.7c-0.8,2.1-1.6,4.3-0.7,4.9l0.1,0.1c0.2,0.1,0.4,0.1,0.6,0
		c0.9-0.2,2.1-0.9,3.5-2.3c3.1-3.1,5-5,7.3-10l0.2-0.3c0.6-1.3,0.9-2.2,0.8-2.8C134,63.5,129.3,66.5,126.8,71.8 M142.8,51.6
		c0.1-0.2,1.8-4.6,1.8-4.8c-0.3-1.4-1.8-3.7-3.7-4.5c-0.4-0.2-0.8-0.3-1.2-0.3c-1.4,0.4-2.9,2.5-3.8,4.4c-1.1,2.4-1.4,4.4,0.8,5.4
		C138.2,52.4,142.4,51.9,142.8,51.6 M151.8,39l0.1,0.1c0.9,0.4,1.6,1.1,2.2,2.1c1.3,2,0.8,3-1,5.6c-1.1,1.7-2.5,5.5-3.9,8.4
		c-0.6,1.1-0.9,1.9-1,2.2c1.9,0,5.4-1.3,7.3-2.1c1.2-0.4,3.1-1,3.9-2c0.5,0.1,0.8,0.1,1.1,0.3c0.2,0.1,0.5,0.3,0.8,0.6
		c-1.1,1.5-3.7,2.3-5.4,2.9c-2.5,0.9-6.6,2.1-8.8,2.5c-0.3,0.4-0.7,1.5-1.2,3.4c-0.5,1.8-1.7,4.7-3.6,8.7c-2.2,4.7-5.9,7.9-9.3,9.6
		c-2.9,1.4-5.9,2.2-8.8,0.8c-4.4-2.1-2.7-9.4,0.4-14.4c3.8-6.7,9.6-6.9,14.9-8.4l1.1-2.4c0.6-1.1,1-2,1.3-2.7
		c-2.4,1-4.4,1.3-6.1,0.9c-3.3-0.6-5.2-2.8-5.4-5.2c-0.4-2.4,0.1-5.2,1.5-8.1c0.6-1.4,1.4-2.5,2.3-3.5c1.2-1.4,2.3-2,3.4-1.8
		c5.8,0.6,8.2,3.7,8.3,7.7c0.2-0.7,0.5-1.5,1-2.5C148.1,39.8,149.7,38.2,151.8,39"/>
</g>
</svg>
