<?xml version="1.0" encoding="utf-8"?>
<!-- Generator: Adobe Illustrator 18.1.1, SVG Export Plug-In . SVG Version: 6.00 Build 0)  -->
<!DOCTYPE svg PUBLIC "-//W3C//DTD SVG 1.1//EN" "http://www.w3.org/Graphics/SVG/1.1/DTD/svg11.dtd">
<svg version="1.1" id="Ebene_1" xmlns="http://www.w3.org/2000/svg" xmlns:xlink="http://www.w3.org/1999/xlink" x="0px" y="0px"
	 viewBox="0 0 274.4 110.7" enable-background="new 0 0 274.4 110.7" xml:space="preserve">
<g>
	<path fill="#FFD400" d="M0.9,31.3c0-0.1,0.1-0.1,0.1-0.1c0.1-0.1,0.1-0.1,0.2-0.3h0.1c0.2,0,0.4,0.1,0.4,0.5v0.4
		c-0.1,0.2-0.2,0.3-0.4,0.3c-0.1,0.1-0.2,0-0.2-0.1C1.1,31.6,0.9,31.5,0.9,31.3 M0.4,36.8c0.8-0.8,1.5-1.2,2.2-1.2h0.1
		c4.1,0,1.5,6.3,0.6,8C2.8,44.5,2.5,45,2.3,45C2,45,1.6,45,1.1,45c-1.2,0.1-1.1-1.1-1.1-2C0,40.9,1.2,38.8,0.4,36.8"/>
	<path fill="#FFD400" d="M21,61.2l0.1,0c0.1-0.2,0.1-0.5,0-1.1c-0.2-0.7-0.5-1.5-0.9-2.2c-0.3-1,1-2.3-1.1-1.7
		c-0.4,0.3-0.5,0.9-0.2,1.7C19.3,59.1,20.7,61.1,21,61.2 M40.1,106.7l0.2-0.1c0.2-1-3-2.5-3.8-3.1c-0.7-0.5-3.4-3.4-3.9-3.2l-0.1,0
		c-0.1,0-0.1,0.2,0,0.3C33,101.8,38.9,107.1,40.1,106.7 M22.4,70.4l0.1,0c0.6-0.7-1.5-5-2.3-4.7c-0.6,0.2,1.6,2.3,0.3,2.2
		C20.9,68.7,21.7,70.4,22.4,70.4 M48,110.6c-1,0.2-3.2,0.1-6.4-0.4c-3.2-0.6-5.8-2.2-7.5-4.5c-2.6-3.6-4.5-7-6.2-9.9
		c-1.6-3.2-3-6-3.9-8.5l-1-3.1c-2.5-7.4-2.5-13.6-4-19.8c2.1,0.5,2.4,0.2,0.9-1.3c-1.4-1.4-2.5-4.1-3.2-8.2
		c-1.8-6.2-5.1-18.5-1.4-21.7c1.3-1.1,2.6-2.5,3.7-4c0.7-0.9,1.6-1.5,2.5-1.8c3.9-1.3,5.6-0.1,7.9,4.5c1.6,3.2,3,6.6,4.2,10.5
		c2.7,8,3,13.2,4.9,20.8c1.4,4.9,1.2,9.6,3.6,15.7c0.9,2.4,2.1,5.2,3.6,7.8c2.1,4.2,6.7,13.5,10.3,13.5c4.6,0.2,5.7-31.1,5.7-35.6
		c1-1.1,2.2-1.3,3.5-1.3c0.3,9.1-0.8,20.1-1.7,28.7c-0.4,4.1-0.7,6.5-0.9,7.4c-0.9,3.2-3.1,5.7-6.6,7.5c-3,1.7-5.3,2.9-7.2,3.5
		L48,110.6z"/>
	<path fill="#FFD400" d="M79.5,102.3l0-0.2c-0.1-1.4-0.1-1.6,1.3-1.9c0.3,0.8,1.1,1,1.6,1.3c0,0.7-0.3,1.8-1,2
		C80.9,103.2,79.6,102.7,79.5,102.3 M74.5,60.8c-1.8,2.4-1.8,6.1-1,10.6c0.3,1.9,0.7,3.4,1.2,4.2c1.3-0.4,2.8-1.3,4.6-3
		c1.8-1.7,2.5-3.5,2.2-5.3l0-0.1c-0.2-1.3-0.5-2.9-0.9-4.5c-0.3-1.6-0.8-2.8-1.7-3.5c-0.8-0.1-1.4-0.1-2,0
		C75.8,59.4,75.1,60,74.5,60.8 M77.9,87.9l0.1,0c0.7-0.7-1.8-5-2-5.3c-0.2,0.8-0.6,0.7-1.1-0.6c-0.5-1.1-1-1.6-1.1-1.5l-0.1,0
		c-0.1,0.1-0.1,0.2,0,0.5C73.9,82.4,77.4,87.5,77.9,87.9 M67.8,51.5c6-1,12.5,1.7,14.6,5.5c5.1,8.8,3.6,12.5,0.4,18.2
		C81.5,77.6,79,79,76.5,80c1.1,3.9,6.5,9.2,10.1,9.5c0.7,0,1.3-0.1,1.8-0.3c0.7-0.2,1.2-0.7,1.6-1.3c3.7-5.1,5.7-14.3,7-20.9
		c0.6-3,0.9-4.7,0.9-5.3c0.5-0.2,1.2-0.3,1.8-0.4c0.7-0.1,1.1-0.1,1.5,0c-0.4,6.9-3.6,16.3-5.6,22.7c-1.9,5.7-4.3,10-11.8,11.3
		c-4.4,0.8-9.7-0.6-12.3-1.6C67,91.9,63,87,61.1,82.1c-0.9-2-1.4-3.3-1.5-4c-0.4-1.4-0.7-2.9-1-4.2c-1.1-6.4-0.5-12.5,0.8-16.4
		c0.2-0.7,0.9-2.7,1.4-2.8C62.8,53,64.9,52.1,67.8,51.5"/>
	<path fill="#FFD400" d="M123.2,90.9c-1,0-1-0.3-1.2-1.2c0-0.6,0.8-0.8,1.2-1.2c0.6,0,1,0.5,1,1.2C123.8,90.1,123.3,90.2,123.2,90.9
		 M115.4,81.8c-0.8,0-1,0.3-1,1.2c-0.3,0.4,0.8,0.6,1,0.9c0.3,0,0.6,0,0.6-0.3c0.1-0.3,0.3-0.5,0.3-0.8
		C116,82.4,115.5,82.3,115.4,81.8 M110.5,46.8c0.4,0.6,0.6,1,0.8,1h0.1c0.1-0.1,0.3-0.4,0.3-0.9c0.1-2.3,1.4-2.7,2.6-4.3
		c0.4-0.8,0.6-1.2,0.8-1.3C113.3,42.4,111,44.2,110.5,46.8 M105.2,49.5c0.4,0.8,0.8,1.2,1.2,1.2l0.1-0.1c0.6-0.3,1.4-2.7,1.4-2.7
		c1.3-2.1,1.7-2.6,1.9-3.6C108.3,45,105.8,47.3,105.2,49.5 M122.8,37.1c2.7,0,4.1,1.2,4.5,3.8c0.4,3,0.6,6.3,0.5,9.7
		c-0.6,0.4-1.7,0.5-3.2,0.1c-1.6-0.4-2.1-1.4-1.2-3.1c1-2.1,0.9-3.6-0.3-4.7c-1.2-1-2.1-1.6-3-1.3c-6.2,6.2-11.4,18.5-9.8,30.7
		c0.6,4.7,1.9,7.4,4.3,8.3c9.6,3.9,16.7-4.8,20.9-10.4c3.4-4.5,6.9-11.1,8.7-15.8c0.6-0.1,1.2-0.3,1.8-0.3c0.6,0,1.3,0.1,1.8,0.3
		c-2.2,7.3-7.5,14.8-11.4,21.4c-4.4,7-10.4,11.4-18,13.2c-1.3,0.4-2.2,0.5-3.1,0.5c-0.8,0.1-1.2,0.1-1.3,0.1
		c-0.8,0.1-1.4,0.1-2.1,0.1c-6.3,0-12-2.7-14.5-6.2c-1.2-1.7-1.7-2.8-1.6-3.5c0-3-1.4-4.1-1.4-7.3c0-4.3,0.9-7.1,2.3-10.8
		c1.2-4.8,1.7-5.8,3.5-7c2.5-5.2,9.3-13.6,14.2-16.3c1.6-0.9,3-1.3,4-1.4C120.3,37.4,121.4,37.1,122.8,37.1"/>
	<path fill="#FFD400" d="M154.4,87c1.2-0.1,2.4-2.1,3-3c-1.2-0.1,1-2.9,0.9-2.9l-0.1,0c-1,0.1-4.2,4-4.1,5.3
		C154,86.6,154.1,87,154.4,87 M138.8,12.3l0.1,0c0.1,0,0.2-0.4,0.3-1.1c0-0.8-0.1-1.6-0.3-2.3c-0.1-1,1.6-1.9-0.6-1.9
		c-0.5,0.3-0.6,0.7-0.6,1.6C137.9,9.9,138.5,12.2,138.8,12.3 M141.4,83.9l0,0.3c0.1,1,0.2,1.7,0.6,1.7l0.3,0c0.1,0,0.2-0.3,0.2-0.7
		c0.1-0.9,0.1-2.1,0.5-2.9c0.2-0.4,0.3-0.8,0.5-1.2c-0.3-0.1-0.7-0.1-1-0.1l-0.3,0C141.1,81.1,141.3,83.3,141.4,83.9 M154.5,24.8
		c0.2,3.6-0.4,10.7-0.4,15.2c0,2.6,0.1,5.1,0.3,7.5c0,2.5,0.2,4.5,0.6,6.2c0.9,0.3,4.2-1.8,5.2-2c1.2-1,2.6-3,4-5.9
		c1.4-2.9,3-6.4,5-10.4c1-0.4,2-0.8,2.9-0.8c0.9,0,1.4,0.3,1.5,1.1c0.1,2.3-0.9,5.5-3,9.9c-2.2,4.4-4.8,7.6-7.7,9.9
		c4.1,4.6,7.9,11.5,10.9,17.1c1.4,2.6,2.8,4.1,3.7,4.2c0.7,0.1,1.5-1.6,2.9-4.9c2.9-6.9,6-15.9,8-23.6c0.6-0.4,1.1-0.6,1.8-0.6
		c0.6,0,1.2,0.1,1.8,0.4c-0.7,3.9-2.5,9-3.7,13c-1.7,5.3-4.2,13.3-6.2,17.3c-2.3,4.7-7.8,3.8-12,0.8c-3.9-2.9-6.4-10.3-8.1-15.5
		c-1.4-3.8-2.1-4.7-5.3-4.5c-0.6,0-1.2,0.1-1.5,0.2c1.1,3.4,3.3,15.1,2.1,19.5c-0.2,0.8-1.4,2.4-3.6,4.9c-2.2,2.6-4.6,4.3-7.1,4.8
		l-0.8,0c-0.9,0-1.7-0.2-2.6-0.5c-1.1-0.3-2-1.3-3-2.7c-0.2-0.9-0.1-2.3,0.4-4.4c0.5-2.1,0.4-3-0.7-3.1c-0.9,0-1.4-2-1.5-6.3
		c-0.1-4.1-0.2-10.9-0.6-20.5c-0.2-4-0.8-11-1.2-15.4l-0.3-5c0-4.3,0.5-5.9-0.6-11.1c-0.2-1.2-0.2-2.2-0.3-3.2
		c-0.1-1.9,0.1-3.5,0.7-4.6c1.2,2.1,1.7,2.1,1.3-0.2c-0.9-4-0.2-9.5,2.5-11.2c0.1-0.1,0.6-0.3,1.3-0.2c4.8-0.3,11.7,1.3,12,6.1
		C153.2,10.9,154.7,19.4,154.5,24.8"/>
	<path fill="#FFD400" d="M194.4,95.3l0-0.3c0.4-1.5,0.6-1.7,2.1-1.4c0,0.9,0.8,1.5,1.2,2.1c-0.3,0.7-1,1.8-1.9,1.7
		C195.6,96.8,194.3,95.8,194.4,95.3 M206,49.2c-2.9,1.8-4.4,5.7-5.4,10.8c-0.4,2.2-0.6,3.8-0.4,4.9c1.6,0.2,3.5-0.2,6.1-1.3
		c2.6-1.1,4.1-2.6,4.5-4.7l0-0.1c0.3-1.5,0.6-3.3,0.9-5.1c0.3-1.8,0.2-3.3-0.3-4.4c-0.8-0.4-1.5-0.7-2.1-0.8
		C207.9,48.3,206.9,48.6,206,49.2 M198.6,79.3l0.1,0c1-0.5,0.1-6,0.1-6.5c-0.6,0.8-0.9,0.5-1-1.1c-0.1-1.3-0.4-2.1-0.5-2.1l-0.1,0
		c-0.2,0.1-0.2,0.2-0.2,0.5C196.6,71.9,198.2,78.7,198.6,79.3 M202.6,36.7c6.7,1.3,12.5,6.9,13.3,11.8c1.9,11.4-1.3,14.7-7,19.5
		c-2.4,1.9-5.6,2.3-8.6,2.4c-0.4,4.6,3.1,12.4,6.9,14.1c0.7,0.3,1.4,0.4,2,0.4c0.8,0,1.5-0.2,2.3-0.7c6-3.8,11.9-12.9,15.9-19.3
		c1.9-2.9,2.9-4.6,3.1-5.2c0.7,0,1.4,0.1,2.1,0.3c0.8,0.1,1.2,0.4,1.6,0.6c-3.2,7.2-10.5,15.8-15.2,21.7c-4.3,5.2-8.6,8.9-17.1,7.2
		c-5-1-10.1-4.6-12.4-6.8c-4.1-3.6-6.3-10.3-6.3-16.3c-0.2-2.5-0.1-4.1,0-4.9c0.2-1.7,0.4-3.4,0.7-4.9c1.4-7.2,4.6-13.5,7.5-17
		c0.5-0.7,2.1-2.5,2.6-2.4C196.8,36.2,199.3,36,202.6,36.7"/>
	<path fill="#FFD400" d="M253,59.4c0,0.1-0.1,0.2-0.1,0.5c0.7,0.3,1.3,0.6,1.6,1.2c0.2-0.1,0.3-0.3,0.3-0.8
		c-0.2-0.6-0.6-1.1-1.1-1.1l-0.2-0.1C253.4,59,253.2,59.1,253,59.4 M229.4,103.2c0-0.1-0.1-0.2-0.2-0.3c-0.2-0.1-0.4-0.4-0.4-0.8
		c-0.6-0.4-1.2,0.1-1.6,1l0,0.1c-0.4,0.8-0.3,1.4,0.4,1.8c0.4,0.1,0.7,0,0.8-0.4C228.6,104.2,229.2,103.7,229.4,103.2 M233.3,82.9
		l0.1,0l0.1-0.2c0.6-3.3,1-5.2,1.6-5.9l-0.1-0.2c-0.5-0.2-1.1,1.1-2,3.7c-0.2,0.2-0.3,0.4-0.4,0.8C232.3,81.7,232.6,82.7,233.3,82.9
		 M233.3,77.1l0.2-0.1c0.2,0.1,0.2-2.7,1.1-1.8c0.2-0.8,0.7-2.9,0.1-3.2c-0.5,0.1-0.7,0.4-0.9,1C233.2,74.4,232.9,77,233.3,77.1
		 M241.2,50.3c-0.2,0.6-0.4,1-0.3,1.4c1.1,0.4,2.8-1.1,4.5-3.1c2-2.3,2.9-3.6,2.6-3.9l-0.1,0C245.1,43.7,242.3,47.4,241.2,50.3
		 M257.1,62c-0.2,0.5-0.6,0.9-1.2,1.3c-0.3,0.3-1.5,1.7-3.5,4.4c-3.8,5.1-6.2,19.3-6.9,26.2c-0.8,8.3,1,8.7,6.8,3.2
		c3-2.9,6.2-6.1,9.4-9.6c3-3.6,6.8-8.2,9.4-11.1c1.4,0.3,2.5,0.4,3.3,1.5c-5.9,7.2-13.2,17-19.4,23.1c-3.8,4.1-10,6.2-15.8,5.6
		c-0.9-0.1-1.6-0.2-2.4-0.5c-12.3-4.7-7.5-22.7-4-34.3c0.7-2.1,2.7-5.5,6.1-10c0.8-2.2,3.6-4-0.2-5.7c-1,0.7-2,2-3.3,3.6
		c-1.2,1.7-2.5,3.2-4.1,4.8c-1.5-0.4-2.2-0.8-3.2-1.5c2.4-3,8.5-9.9,9.8-14c0.6-2,2.1-4,4-6.1c1.9-2,4.2-2.7,7-1.9l1,0.4
		c3.5,1.3,3.3,4.7,1,7.9l-2,2.4c-0.8,0.7-1.4,1.2-2,2l-0.8,1.1l6.3,2.4C255.5,58.3,257.5,59.8,257.1,62"/>
	<path fill="#FFD400" d="M70.6,23.5l0-0.3c0.4-1.5,0.6-1.7,2.1-1.4c0,0.9,0.8,1.5,1.2,2.1c-0.3,0.7-1,1.8-1.9,1.7
		C71.7,25.1,70.5,24,70.6,23.5"/>
</g>
</svg>
