<?xml version="1.0" encoding="utf-8"?>
<!-- Generator: Adobe Illustrator 18.1.1, SVG Export Plug-In . SVG Version: 6.00 Build 0)  -->
<!DOCTYPE svg PUBLIC "-//W3C//DTD SVG 1.1//EN" "http://www.w3.org/Graphics/SVG/1.1/DTD/svg11.dtd">
<svg version="1.1" id="Ebene_1" xmlns="http://www.w3.org/2000/svg" xmlns:xlink="http://www.w3.org/1999/xlink" x="0px" y="0px"
	 viewBox="0 0 10.1 29.2" enable-background="new 0 0 10.1 29.2" xml:space="preserve">
<path fill="#FFD400" d="M1.9,0.7c0-0.1,0.1-0.1,0.3-0.1C2.4,0.4,2.5,0.3,2.7,0h0.1c0.5,0,0.8,0.3,0.8,1v0.7C3.4,2.2,3.1,2.4,2.7,2.4
	c-0.3,0.1-0.4,0-0.4-0.3C2.2,1.5,1.9,1.2,1.9,0.7 M0.7,12.3c1.6-1.6,3.1-2.5,4.6-2.5h0.2c8.4,0,3.1,13,1.2,16.6
	c-1,1.8-1.6,2.8-1.9,2.8C4,29,3.3,29,2.2,29C-0.1,29.3,0,26.8,0,24.9C0,20.7,2.5,16.3,0.7,12.3"/>
</svg>
