<?xml version="1.0" encoding="utf-8"?>
<!-- Generator: Adobe Illustrator 18.1.1, SVG Export Plug-In . SVG Version: 6.00 Build 0)  -->
<!DOCTYPE svg PUBLIC "-//W3C//DTD SVG 1.1//EN" "http://www.w3.org/Graphics/SVG/1.1/DTD/svg11.dtd">
<svg version="1.1" id="Ebene_1" xmlns="http://www.w3.org/2000/svg" xmlns:xlink="http://www.w3.org/1999/xlink" x="0px" y="0px"
	 viewBox="0 0 198.7 145.7" enable-background="new 0 0 198.7 145.7" xml:space="preserve">
<g>
	<path fill="#FFD400" d="M67.2,99.9c0.1,0.5,0.6,1.6,0.9,1.5c0.1-0.2,0-0.5-0.2-1.1c-0.3-1.2-1.6-3.8-1.9-3.9
		c-0.1,0.2-0.4,0.3-0.7,0.4c-0.4,0.3-0.5,0.5-0.3,0.6C65.2,98,67.1,99.4,67.2,99.9 M63.5,94.5l0.1,0.3c0.2,0.1,0.4,0.4,0.4,0.7
		c0.2,0.1,0.3,0.1,0.5,0l0.3-0.1c0.4-0.4,0.4-0.4,0.6-0.8c-0.2-0.1-1.2-0.8-1.5-0.7C63.8,94.1,63.5,94.2,63.5,94.5 M47,40.2
		c-0.2,0-0.5,0.1-0.7,0.4c-0.5,0.1-0.6,0.3-0.3,0.6c0.1,0.5,2,1.9,2.2,2.4c0.1,0.3,0.7,1.9,0.9,1.5c0.2,0,0.1-0.3-0.2-1.1
		C48.5,42.7,47.4,40.1,47,40.2 M52.6,90.7l0.2,0c-0.1-0.5-3.2-1.2-2.4-2.1c-1-0.2-7.3-2.9-8.6-2.5l-0.2,0
		C41.7,86.8,51.5,91,52.6,90.7 M41.3,90c0.8,0.9,1.8,1.6,3.4,1.7l2.4,0.1c0.1-0.2,0.1-0.3,0-0.5c-0.1-0.3-0.5-0.7-1.5-1.1
		c-3.1-0.9-2.6-2.1-6.3-2.5c-1.9-0.3-3.2-0.4-3.9-0.4l0.1,0.3C35.8,88.8,40.6,89.9,41.3,90 M14.2,80.6l0.3-0.1
		c-0.2-0.6,0.8-3.5-0.7-3.1c-0.9,0.3-2.2,1.6-2,2.1l0,0.2C12.1,80.2,13.2,80.9,14.2,80.6 M24.7,135.1c-0.4,0.3-0.7,0.5-0.7,1l0,0.2
		c0.1,0.5,0.7,1.4,1.6,2.5c0.8,0.4,2.5,0.6,3.4,0.3l0.2,0C27.4,138.2,25.4,137.6,24.7,135.1 M21,128.5l0.3,0.9
		c0.3,1.2,1.1,1.7,2.1,2c0.1-0.2-0.1-0.8-0.4-1.9s-0.4-2.7-0.2-4.7l-0.2,0C21.8,125.1,20.9,128.2,21,128.5 M4.5,71.8
		c0.4,1.4,4.1,6.1,5.9,5.6c0.3-0.6,0.6-0.7,0.9-1.6c-1-0.5-1.7-0.7-2.4-0.3c-0.9,0.3-1.7-0.3-2.6-2.1l-0.7-4.2C5.2,67,5,65.9,4.8,66
		C4.2,66.1,4.3,70.9,4.5,71.8 M64.1,135.8c-3.6,4-7.5,6.8-11.4,7.9l-1.1,0.3c-12.6,2.8-20.6,2.9-27.7-5.1
		c-4.1-4.6-5.6-10.4-3.7-15.3c1-2.4,5.6-8,9.2-5.3c0.6,0.5,1.4,1.4,2.1,2.5c-0.7,2.2,0.2,4.9,2.7,7.8c4.6,5.6,10.5,6.6,16.2,0.1
		c4-4.4,3.9-7.2,3.7-12.9c-0.2-1.3-0.4-2.7-0.8-3.9c-0.9-2.4-2.5-4.7-5-7.1c-2.7-2.5-7-4.9-13.2-6.9c-5.6-1.8-11.8-5-17.1-8.3
		c-5.2-3.6-9.7-7.8-13.5-13c-1.7-2.3-2.7-4.8-3.4-7.4c-3.5-12,1.3-21.3,9.1-28.7c4.6-4.3,9.4-7,14.4-8.4c8.4-2.4,15-0.5,20,4
		c3.1,2.9,6.4,5.7,6.4,10.7c-0.1,2.5-1.1,4.1-3.4,5.3c-2.3,1.2-4.3,1.6-5.9,1.4c-1.2-6.9-7.7-11.8-12.9-12.3
		c-4.4-0.4-7.1,1.6-9.6,4.6c-5.8,7.4,4.2,27.8,10.6,30.8c7.8,3.7,15.9,4.8,23.8,7.7c5.3,1.9,14.8,9.1,17.8,17.7l0.7,2.4
		C76.4,119.1,71.9,127,64.1,135.8"/>
	<path fill="#FFD400" d="M113.2,109.6c-0.4-1-0.7-2.2-0.8-3.4c-0.3-1.2-0.5-1.8-0.6-1.7c-0.3,0-0.4,0.5-0.3,1.5
		c0.3,3.1,2.2,9.1,3.6,9.4c0.1-0.2,0.3-0.3,0.2-0.8C115.2,113,113.7,111.1,113.2,109.6 M101.4,50.6l-0.1-0.6c0.3-1.8,0.3-3.5,0.3-5
		c1.4-0.6,3.8-1.3,7.1-1.7l1.9-0.2c1.9-0.2,2.9,0,2.9,0.6l0,0.1c-0.7,4.7,1.9,6.9-2.3,9.1c-0.7,0.5-1.9,0.6-3.1,0.7l-0.3,0
		C104.1,54.1,101.6,52.7,101.4,50.6 M99.4,48.5c0.2,1.8-0.3,3.3,0.2,5.7c0.2,0.9-1.3,1.6-4.5,2.1l-1,0.1c-2.7,0.3-7.5,0.1-7.7-2.1
		c-0.4-4,3.7-8.2,6.8-9.1l0.3,0C95.7,45,99.2,46.8,99.4,48.5 M86.7,46c0.9-0.1,0.5,1.8,0.7,2.3c-0.1,0.2-0.3,0.2-0.4,0.2l-0.3,0
		c-0.4,0-1.2-0.3-1.4-0.6l0-0.1C85.1,47.2,86.1,46.1,86.7,46 M92.3,112.7c0.3,0,0.6-0.2,1-0.4c0.9-1.9-0.5-0.6-2.1-1
		c-0.1,0.5-0.2,0.6-0.2,0.8C91.1,112.7,91.9,112.7,92.3,112.7 M77.1,69.9c0.1,1,0.3,1.5,0.5,1.6c0.1-0.2,0.2-0.6,0.3-1.5
		c-0.1-1,0-1.4,0.5-1.1c0.1-0.8,0-1.5-0.1-2.2c-0.1-0.7-0.2-1-0.6-1.2C77.1,65.9,76.5,68.2,77.1,69.9 M109.5,100.4
		c-0.2-3.1-0.4-5.5-0.6-6.7c-2.1,6.5-4.3,13-8.9,17.2c-2.2,2.2-5.1,3.1-8.6,2.3c-2.5-0.5-4.5-1.4-6.1-2.4c-4.1-3.1-6.7-8.4-7.3-15.2
		l-2-21.2c-0.7-9-0.4-10.3,6.2-12.2c0.4-0.2,0.7-0.1,1.2-0.1c8.2-0.8,9.2,11.1,9.3,19.9c0,5.1,0.1,10.1,0.1,14.7c0,4.7,1,7.3,3,8.1
		c6.8,3.4,12.3-14.9,12.1-21.3c-0.5-5.2,1-9.7,1.3-14.3c0.1-0.9,1.2-1.2,4-0.7c3.7,0.6,8.5,2.8,8.4,7.8c-0.5,6.1-1.7,15.7-0.6,22.3
		c1.1,4.9,2.5,9.2,4.7,12.9c1.5,2.6,2.8,3.8,4.3,4.1c0.8,0.1,1.8-1.4,3.5-4.7c4-8.2,8.1-19.1,11.3-28.3c1.9-5.6,2.7-9.1,2.9-10.7
		c0.7-0.2,1.5-0.4,2.2-0.4c0.9-0.1,1.7,0,2.1,0.2c-0.6,5.9-3.8,14-5.9,20.1c-2.1,6.2-4.2,12.1-6.4,17.8c-2.2,5.6-3.4,8.7-3.8,9.2
		c-2.2,3.2-5.3,5.6-9.2,7.2c-0.7,0.2-1.5,0.4-2.2,0.5C114.7,127.7,109.8,111.2,109.5,100.4"/>
	<path fill="#FFD400" d="M193,95c-0.2,0-0.3-0.3-0.2-0.9l0.1-0.9c0.4-1.8,2.1-7.4,2.3-10.7c0.2-1.3,0.3-2.2,0.4-2.4
		c0.1,1.2,0.2,3.6,0.1,5.1C195.5,89,193.9,92.6,193,95 M189.8,100.5c-0.7-0.5-1.4-1.7-1.3-2.8l0-0.7c0.7,0,1.2-0.1,1.4-0.2
		c0.2-0.3,0.5-0.3,1.2-0.1c0.4,0.3,0.7,0.6,0.7,1.1C191.7,99,190.8,100,189.8,100.5 M146.8,117.2c-0.2-0.3-0.2-0.6-0.3-0.9
		c-0.1-0.4,0-0.8,0.2-1.3c0.1-3.1,0.4-4.8,1-5l0.2,0.1c-0.3,1-0.3,3.4,0.1,7.4l0,0.1C147.8,117.8,147.3,117.6,146.8,117.2
		 M190.3,10.1c0.7,0,2.6,3.8,2.6,4.5c0.2,1.5,0.3,3,0.2,4.7l0,0.1c-0.1,1.2-0.1,1.9-0.3,1.9l-0.1-0.3c0-2.4-0.2-4.4-0.7-6.2
		c-0.6-1.7-1.1-3.4-1.8-4.8L190.3,10.1z M194.1,50.8l-3.4-3.5c-1.4-1.4-3-2.9-4.5-4.2l-2.6-2.1c2-1.4,4.4-4.1,7.4-8.2
		c2.8-4.2,4.3-9.2,4.5-14.9C195.8,6.4,184.3,0.7,172.7,0c-7.8-0.5-14.6,12.6-16.6,19.2c0,0-4.2,10.5-5.2,16.9
		c-1,7.3-2.4,18.2-2.3,25.6c-0.1,2.1-0.3,4.2-0.7,5.9c-0.8,13.3-2,29.3-3,42.1c-0.5,6.2-1,9.4-1.4,10.3c1.6,1.4,6.2,5.5,8.3,1.5
		c0.2-0.6,0.8-4.1,1.5-10.6c1.7-13.2,3.9-30.7,3.7-44.8c0.4-0.1,1-4.5,0.4-4.6c0.3-1,0.4-3.7,0.7-8.2c0.5-7.5,1.5-17.1,2.7-24.2
		c0.5-3.1,2-15.5,5.1-19.9c5.1-7.2,11.6-5.3,13.6,2.9c0.9,4.1,0.7,7.4-0.5,9.9c-2.7,5.7-5.2,9.4-7.3,11.4c-2.2,1.8-3.9,3.1-5.5,3.7
		c-0.5,0.3-2.1,2-1.5,3.2c1.7,1.2,4,2.6,6.9,4.3c2.9,1.5,5.2,5.1,7.3,10.6c1.8,3.7,3.5,7.5,3.3,11.8c-0.4,6.4-2,14.9-4.6,21.5
		c-1.6,3.8-6.3,15.1-11,14.8c-3.7-0.2-8.2-3.1-6.7,1.2c2.2,6.3,5.7,9.5,12.9,9.9c3.1,0.2,6.2-0.5,9-2c4.5-2.6,8.2-6.7,11.1-12.4
		C199.7,87.1,200.9,61.9,194.1,50.8"/>
</g>
</svg>
