<?xml version="1.0" encoding="utf-8"?>
<!-- Generator: Adobe Illustrator 18.1.1, SVG Export Plug-In . SVG Version: 6.00 Build 0)  -->
<!DOCTYPE svg PUBLIC "-//W3C//DTD SVG 1.1//EN" "http://www.w3.org/Graphics/SVG/1.1/DTD/svg11.dtd">
<svg version="1.1" id="Ebene_1" xmlns="http://www.w3.org/2000/svg" xmlns:xlink="http://www.w3.org/1999/xlink" x="0px" y="0px"
	 viewBox="0 0 235.3 123.3" enable-background="new 0 0 235.3 123.3" xml:space="preserve">
<g>
	<path fill="#FFD400" d="M112.2,51.3c-0.8-0.1-1.6,0.9-1.1,1.5l0.4,0.3l0.3,0c0.2,0.1,0.4,0,0.6-0.1c-0.1-0.3,0-0.6,0.2-0.9l0-0.3
		C112.6,51.5,112.4,51.3,112.2,51.3 M205.9,48.3c-0.6,0-1.4,1-1.3,1.3l0.1,0c0.1,0.1,0.5,0.5,0.8,0.5c0.2,0,0.5-0.1,0.6-0.2
		c-0.1-0.3,0-0.4,0.2-0.8l0-0.3C206.3,48.7,206.1,48.3,205.9,48.3 M158.1,46.9l0-0.1c0-0.4-1-1-1.6-1c-1.2-0.1,0,1.6,0,2l0.2,0
		C157.3,47.8,158,47.2,158.1,46.9 M158.5,48.4l0,0.1c0.4,1.4,0.6,2.3,0.5,3l-0.1,1.2c0.7-0.5,1-0.8,1-1.7c0-0.1,0-0.2-0.1-0.4
		C159.8,50.4,159,48.4,158.5,48.4 M203.9,83.8l1,0.1c0.7-0.1,1-0.1,1-0.3l-0.1-0.1c-1.8-0.6-2.8-1.2-3.8-1.9
		C202,82.9,202.5,83.7,203.9,83.8 M24.7,70l-0.1-0.1c-1.3-0.3-2.2-0.7-2.8-1.2c-0.5-0.4-0.9-0.6-1.1-0.6c0.1,1.2,0.6,2.2,2,2.3
		C23.2,70.3,24.7,70.2,24.7,70 M202.4,27.4l0,0.1c0.1,0.2,0.3,0.4,1.1,0.4c0.9,0.2,1.6,0.2,2.2,0.2c0.3,0.4,0.6,0.5,1.2,0.5l0.8-0.2
		l1.2-0.2c0-0.3-0.3-0.5-1-0.5c-1.2-0.2-1.3-0.5-2.3-0.6C204.9,27.1,202.7,27.3,202.4,27.4 M17.7,13c0,0.1,0,0.1,0.1,0.2l1.4-0.4
		c1.1-0.2,1.8-0.6,2.2-1.4c0.5-0.2,3.2-1.6,3.3-2.4l-0.1-0.1c-0.9,0.3-4.1,1.5-4.6,2.2C19.8,11.3,17.8,12.3,17.7,13 M25.2,48.9
		c0,1.8,1,3.3,3.1,3.5c0.8,0.1,3.1,0,3.1-0.4l0-0.1C28.4,51,26.8,49.9,25.2,48.9 M156.6,61.4c-0.6-4.5-2.3-8.4-4.9-11.8
		c-1.7,3.1-3.1,6.5-3.5,10.5c-0.4,5,1.5,12.5,6.5,9.2C156.6,68,157.2,65.3,156.6,61.4 M107.9,59.5c1.4-6.7,1.2-12.7-0.8-17.9
		c-4.3,3.5-8.2,8.9-9.3,15.8c-0.8,4.8,1.6,8.9,6.2,7.5C106,64.1,107.2,62.4,107.9,59.5 M213.3,68.4c-0.9,1.4-2.2,2.2-4,2.3
		c-1.8,0.3-3-0.1-3.4-1.3c0.7-0.8,1.2-1.6,1.4-2.3c1.3-3.9-2.5-7.4-5.7-4.9c-1.8,1.3-2.4,3.9-2.2,7.6c0.7,7.2,7.3,16,17,12.3
		c2.6-0.9,5-3.5,7.2-7.4c2.3-3.8,3.5-8.4,3.8-13.6c1-12.7-4.7-22.3-13.5-26.9c-4.5-2.2-9.6-3.5-15.2-4.1c-12.8-1.3-23.3,1.7-32,6
		c-3.8,1.9-7.1,4.2-10,6.9c4.5,5.7,11.5,18.5,5.7,27.7c-3.7,5.7-12.2,6.8-16.6,0.6c-5.1-6.8-2.4-18.7,2.1-25.7
		c-8.2-7.6-23.6-11.8-34.7-6.6c1.6,5.1,2.9,11.3,2.4,18c-0.1,1.4-0.3,2.9-0.6,4.3c-1,7-6.4,11.9-13.5,10.7
		C95,71,90.3,65.4,91.5,57.6c0.7-5,2.5-9.7,5.2-14.1c2.1-3.3,4.6-6.2,7.2-8.6c-6.6-10.9-19.7-18.5-34-22.8C59.7,9.3,51.6,8.8,39.8,9
		c-6.6,0.1-12.7,1.8-18.2,5C15,17.9,10.3,24.1,7.3,32.6c-2,5.4-1.8,10.7,0.5,16c3.3,7.7,8.7,14.1,16.1,17.9
		c6.9,3.7,14.2,2.8,20.9-0.9c4.7-2.5,8.3-5.7,10.7-9.7c1.3-2.1,2.1-4.5,2.5-6.9c1.3-7.4-3.2-13.3-8.5-15.6c-8.1-3.3-17.9,0.8-20,6.3
		c-0.8,2.7-0.3,4.4,0.9,6.3c0.7,1.2,1.9,0.8,3.4-1.1c1.6-1.9,2.4-3.3,2.6-4.2c2.3-0.3,5.4,1.3,5.7,3.2c-0.6,1.7-1.4,3.2-2.3,4.3
		c-1,1-2.1,1.7-3.3,2.2c-5.1,1.8-9.8-1.9-10.8-5.3c-3.8-12.9,8.8-18.3,20.2-17.4c10.4,0.6,17.9,6.3,20.6,13.9
		c2,6.4,1.4,12.1-2.2,17.2c-3.6,5.1-8.3,9.2-13.9,12c-5.2,2.6-11.7,4.6-18.8,4.1l-0.2,0c-7.3-0.7-13.5-2.9-18.7-7
		c-5.1-4.1-8.8-9.1-10.9-15.1c-1.3-4-2.1-8.2-1.7-13c0.2-2.5,0.7-5.2,1.6-7.9C4.9,22,10.2,14.2,17.3,9.1C27.4,1.4,40.5-1,56.9,0.3
		l3.5,0.3c22,2.7,40.4,15.5,49.2,30.4c0.2,0.3,0.3,0.8,0.6,1.2c12.8-6.6,30.4-3.2,41,5.4l2.3,2c2.5-2.5,5.5-4.8,8.6-6.9
		c9.7-5.9,22.8-10.6,38-9.4c9.5,0.7,16.2,3.7,22.1,8.2c7.3,5.6,13.8,17.3,13.1,28.6l0,0.6c-0.5,5.8-2.1,10.8-5,15.2
		c-4.1,6-11,12-20.7,11.2c-8-0.6-13.6-5.1-16.1-10.8c-2-5-1.3-12,1.9-15.8c1.9-2.2,4.4-3.3,7.1-3.4C209.3,56.6,213.4,62,213.3,68.4"
		/>
	<path fill="#FFD400" d="M231.8,120.5l-0.1-0.3c-0.6-2-0.8-2.3-2.8-1.9c0.1,1.2-1,1.9-1.5,2.7c0.4,1,1.3,2.3,2.5,2.3
		C230.3,122.5,231.9,121.2,231.8,120.5"/>
</g>
</svg>
