<?xml version="1.0" encoding="utf-8"?>
<!-- Generator: Adobe Illustrator 18.1.1, SVG Export Plug-In . SVG Version: 6.00 Build 0)  -->
<!DOCTYPE svg PUBLIC "-//W3C//DTD SVG 1.1//EN" "http://www.w3.org/Graphics/SVG/1.1/DTD/svg11.dtd">
<svg version="1.1" id="Ebene_1" xmlns="http://www.w3.org/2000/svg" xmlns:xlink="http://www.w3.org/1999/xlink" x="0px" y="0px"
	 viewBox="0 0 13.9 26.3" enable-background="new 0 0 13.9 26.3" xml:space="preserve">
<path fill="#FFD400" d="M6.3,23c0.4-0.4,0.8-0.8,0.8-0.8s0.3,0.8,0.2,1.3c-0.1,0.4-0.3,0.4-0.7,0.7c-0.5,0.3-0.8-0.3-0.8-0.3
	l-0.3-0.5C5.5,23.4,6,23.4,6.3,23 M13.9,2L9.5,0L0,1.8c0,0,3.7,1.5,4.3,3c0.6,1.6,0.6,1.9,0.6,5.3s0.2,5.5-0.3,6.7
	c-0.6,1.2-1.4,2.3-2,3c-0.3,0.2-0.6,0.5-0.8,0.9c0,0-0.1,0.1-0.1,0.1s0,0,0,0c-0.3,0.5-0.4,1.2-0.3,2.1c0.2,1.9,0.8,3.4,2.9,3.3
	l0.2,0c0.5,0,0.9-0.2,1.4-0.5c1.5-0.5,3.3-1.7,3.1-4.3c0-0.3-0.1-0.6-0.3-0.9c0-0.1,0-0.2,0-0.2S7.1,16.9,6.8,15
	c-0.3-1.9-0.5-6.2,0.8-9.6C8.9,2.6,13.9,2,13.9,2"/>
</svg>
